<?xml version="1.0" encoding="UTF-8" standalone="no" ?>
<!DOCTYPE svg PUBLIC "-//W3C//DTD SVG 1.1//EN" "http://www.w3.org/Graphics/SVG/1.1/DTD/svg11.dtd">
<svg xmlns="http://www.w3.org/2000/svg" xmlns:xlink="http://www.w3.org/1999/xlink" version="1.1" width="1024" height="1024" viewBox="0 0 1024 1024" xml:space="preserve">
<desc>Created with Fabric.js 2.3.6</desc>
<defs>
</defs>
<rect x="-512" y="-512" rx="0" ry="0" width="1024" height="1024" style="stroke: none; stroke-width: 0; stroke-dasharray: none; stroke-linecap: butt; stroke-linejoin: miter; stroke-miterlimit: 4; fill: rgb(140,236,208); fill-rule: nonzero; opacity: 1;" transform="translate(512 512)"/>
<g id="icon-2" transform="translate(512 823.255852) scale(3.797235 3.797235)" style="">
	<path d="M 205.2 3.7 H 7.2 c -0.2 0 -0.3 -0.1 -0.3 -0.3 c 0 -0.2 0.1 -0.3 0.3 -0.3 h 198.1 c 0.2 0 0.3 0.1 0.3 0.3 c 0 0.2 -0.2 0.3 -0.4 0.3 z M 5.6 1.1 l 0.1 0.1 l 1.8 1.9 H 2 l -2 -2 z" style="stroke: none; stroke-width: 1; stroke-dasharray: none; stroke-linecap: butt; stroke-linejoin: miter; stroke-miterlimit: 4; fill: rgb(24,25,31); fill-rule: nonzero; opacity: 1;" transform="translate(-5.7 -8.1) translate(-102.8, -2.4000000000000004) " stroke-linecap="round" />
	<path d="M 0 5.6 l 2 -1.9 h 5.6 c -0.7 0.5 -1.4 1.2 -2 1.9 H 0 z m 210.7 -2.1 l -0.1 -0.3 V 3 l -0.1 -0.1 l -1.1 -1.1 l -1.1 -1.1 l -0.1 -0.1 h -0.2 l -0.3 -0.1 l -0.2 -0.1 l 0.1 0.2 l 0.1 0.3 v 0.2 l 0.1 0.1 l 1.1 1.1 l 1.1 1.1 l -1.1 1.1 l -1.1 1.1 l -0.1 0.1 v 0.2 l -0.1 0.3 l -0.1 0.2 l 0.2 -0.1 l 0.3 -0.1 h 0.2 l 0.1 -0.1 l 1.1 -1.1 l 1.1 -1.1 l 0.1 -0.1 l 0.1 -0.3 z" style="stroke: none; stroke-width: 1; stroke-dasharray: none; stroke-linecap: butt; stroke-linejoin: miter; stroke-miterlimit: 4; fill: rgb(24,25,31); fill-rule: nonzero; opacity: 1;" transform="translate(-3.15 -7.1) translate(-105.35, -3.4) " stroke-linecap="round" />
	<path d="M 213.2 3.5 l -0.1 -0.3 V 3 h -0.1 l -1.1 -1.1 l -1.1 -1.1 l -0.1 -0.1 h -0.2 l -0.3 -0.1 l -0.2 -0.1 l 0.1 0.2 l 0.1 0.3 v 0.2 l 0.1 0.1 l 1.1 1.1 l 1.1 1.1 l -1.1 1.1 l -1.1 1.1 l -0.1 0.1 V 6 l -0.1 0.3 l -0.1 0.2 l 0.2 -0.1 l 0.3 -0.1 h 0.2 l 0.1 -0.1 l 1.1 -1.1 L 213 4 l 0.1 -0.1 l 0.1 -0.4 z" style="stroke: none; stroke-width: 1; stroke-dasharray: none; stroke-linecap: butt; stroke-linejoin: miter; stroke-miterlimit: 4; fill: rgb(24,25,31); fill-rule: nonzero; opacity: 1;" transform="translate(103.1 -7) translate(-211.60000000000002, -3.5) " stroke-linecap="round" />
</g>
	<g id="text-1" transform="translate(504.511994 680.451417) scale(3.051984 3.051984)">
		<text xml:space="preserve" font-family="Arima Madurai" font-size="67.57479892761394" font-style="normal" font-weight="normal" style="stroke: none; stroke-width: 0; stroke-dasharray: none; stroke-linecap: butt; stroke-linejoin: miter; stroke-miterlimit: 4; fill: rgb(24,25,31); fill-rule: nonzero; opacity: 1; white-space: pre;" ><tspan x="-86.411274" y="21.227947" >ÉPICA</tspan></text>
	</g>
<g id="icon-1" transform="translate(512 347.998149) scale(4.40294 4.40294)" style="">
	<path d="M 50.73 63 H 56 V 51 H 50.73 a 23.26 23.26 0 0 0 -2.42 -5.82 L 52 41.44 L 43.56 33 l -3.73 3.73 A 23.25 23.25 0 0 0 34 34.27 V 29 H 22 v 5.27 a 23.25 23.25 0 0 0 -5.82 2.42 L 12.44 33 L 4 41.44 l 3.73 3.73 A 23.23 23.23 0 0 0 5.27 51 H 0 V 63 H 5.27 a 23.25 23.25 0 0 0 2.42 5.82 L 4 72.56 L 12.44 81 l 3.73 -3.73 A 23.25 23.25 0 0 0 22 79.73 V 85 H 34 V 79.73 a 23.25 23.25 0 0 0 5.82 -2.42 L 43.56 81 L 52 72.56 l -3.73 -3.73 A 23.26 23.26 0 0 0 50.73 63 Z M 47.8 72.56 L 43.56 76.8 l -3.31 -3.32 l -1 0.67 a 20.31 20.31 0 0 1 -7 2.92 L 31 77.32 V 82 H 25 V 77.32 l -1.19 -0.25 a 20.31 20.31 0 0 1 -7 -2.92 l -1 -0.67 L 12.44 76.8 L 8.2 72.56 l 3.31 -3.31 l -0.67 -1 a 20.29 20.29 0 0 1 -2.92 -7 L 7.68 60 H 3 V 54 H 7.68 l 0.25 -1.2 a 20.29 20.29 0 0 1 2.92 -7 l 0.67 -1 L 8.2 41.44 l 4.24 -4.24 l 3.31 3.31 l 1 -0.67 a 20.29 20.29 0 0 1 7 -2.92 L 25 36.68 V 32 h 6 v 4.68 l 1.19 0.25 a 20.29 20.29 0 0 1 7 2.92 l 1 0.67 l 3.31 -3.31 l 4.24 4.24 l -3.31 3.31 l 0.67 1 a 20.32 20.32 0 0 1 2.92 7 L 48.32 54 H 53 v 6 H 48.32 l -0.25 1.19 a 20.32 20.32 0 0 1 -2.92 7 l -0.67 1 Z" style="stroke: none; stroke-width: 1; stroke-dasharray: none; stroke-linecap: butt; stroke-linejoin: miter; stroke-miterlimit: 4; fill: rgb(24,25,31); fill-rule: nonzero; opacity: 1;" transform="translate(-16.25 14.5) translate(-28, -57) " stroke-linecap="round" />
	<path d="M 28 40 A 17 17 0 1 0 45 57 A 17 17 0 0 0 28 40 Z m 0 31 A 14 14 0 1 1 42 57 A 14 14 0 0 1 28 71 Z" style="stroke: none; stroke-width: 1; stroke-dasharray: none; stroke-linecap: butt; stroke-linejoin: miter; stroke-miterlimit: 4; fill: rgb(24,25,31); fill-rule: nonzero; opacity: 1;" transform="translate(-16.25 14.5) translate(-28, -57) " stroke-linecap="round" />
	<path d="M 60.5 3 a 23.5 23.5 0 0 1 0 47 v 3 A 26.5 26.5 0 1 0 34 26.5 h 3 A 23.53 23.53 0 0 1 60.5 3 Z" style="stroke: none; stroke-width: 1; stroke-dasharray: none; stroke-linecap: butt; stroke-linejoin: miter; stroke-miterlimit: 4; fill: rgb(24,25,31); fill-rule: nonzero; opacity: 1;" transform="translate(16.25 -16) translate(-60.5, -26.5) " stroke-linecap="round" />
	<path d="M 59 10.5 V 22.8 A 4 4 0 1 0 64.2 28 H 76.5 V 25 H 64.2 A 4 4 0 0 0 62 22.8 V 10.5 Z" style="stroke: none; stroke-width: 1; stroke-dasharray: none; stroke-linecap: butt; stroke-linejoin: miter; stroke-miterlimit: 4; fill: rgb(24,25,31); fill-rule: nonzero; opacity: 1;" transform="translate(22.243126 -21.993126) translate(-66.49312586381248, -20.506874136187513) " stroke-linecap="round" />
	<rect x="-14.5" y="-1.5" rx="0" ry="0" width="29" height="3" style="stroke: none; stroke-width: 1; stroke-dasharray: none; stroke-linecap: butt; stroke-linejoin: miter; stroke-miterlimit: 4; fill: rgb(24,25,31); fill-rule: nonzero; opacity: 1;" transform="translate(29.75 22.5)"/>
	<rect x="-11.75" y="-1.5" rx="0" ry="0" width="23.5" height="3" style="stroke: none; stroke-width: 1; stroke-dasharray: none; stroke-linecap: butt; stroke-linejoin: miter; stroke-miterlimit: 4; fill: rgb(24,25,31); fill-rule: nonzero; opacity: 1;" transform="translate(21 30.5)"/>
	<rect x="-3.75" y="-1.5" rx="0" ry="0" width="7.5" height="3" style="stroke: none; stroke-width: 1; stroke-dasharray: none; stroke-linecap: butt; stroke-linejoin: miter; stroke-miterlimit: 4; fill: rgb(24,25,31); fill-rule: nonzero; opacity: 1;" transform="translate(40 30.5)"/>
</g>
</svg>