<?xml version="1.0" encoding="UTF-8" standalone="no" ?>
<!DOCTYPE svg PUBLIC "-//W3C//DTD SVG 1.1//EN" "http://www.w3.org/Graphics/SVG/1.1/DTD/svg11.dtd">
<svg xmlns="http://www.w3.org/2000/svg" xmlns:xlink="http://www.w3.org/1999/xlink" version="1.1" width="1024" height="1024" viewBox="0 0 1024 1024" xml:space="preserve">
<desc>Created with Fabric.js 2.3.6</desc>
<defs>
</defs>
<rect x="-512" y="-512" rx="0" ry="0" width="1024" height="1024" style="stroke: none; stroke-width: 0; stroke-dasharray: none; stroke-linecap: butt; stroke-linejoin: miter; stroke-miterlimit: 4; fill: rgb(247,255,126); fill-rule: nonzero; opacity: 1;" transform="translate(512 512)"/>
<g id="icon-2" transform="translate(519.193739 811.75603) scale(3.64753 3.64753)" style="">
	<path d="M 205.2 3.7 H 7.2 c -0.2 0 -0.3 -0.1 -0.3 -0.3 c 0 -0.2 0.1 -0.3 0.3 -0.3 h 198.1 c 0.2 0 0.3 0.1 0.3 0.3 c 0 0.2 -0.2 0.3 -0.4 0.3 z M 5.6 1.1 l 0.1 0.1 l 1.8 1.9 H 2 l -2 -2 z" style="stroke: none; stroke-width: 1; stroke-dasharray: none; stroke-linecap: butt; stroke-linejoin: miter; stroke-miterlimit: 4; fill: rgb(24,25,31); fill-rule: nonzero; opacity: 1;" transform="translate(-5.7 -8.1) translate(-102.8, -2.4000000000000004) " stroke-linecap="round" />
	<path d="M 0 5.6 l 2 -1.9 h 5.6 c -0.7 0.5 -1.4 1.2 -2 1.9 H 0 z m 210.7 -2.1 l -0.1 -0.3 V 3 l -0.1 -0.1 l -1.1 -1.1 l -1.1 -1.1 l -0.1 -0.1 h -0.2 l -0.3 -0.1 l -0.2 -0.1 l 0.1 0.2 l 0.1 0.3 v 0.2 l 0.1 0.1 l 1.1 1.1 l 1.1 1.1 l -1.1 1.1 l -1.1 1.1 l -0.1 0.1 v 0.2 l -0.1 0.3 l -0.1 0.2 l 0.2 -0.1 l 0.3 -0.1 h 0.2 l 0.1 -0.1 l 1.1 -1.1 l 1.1 -1.1 l 0.1 -0.1 l 0.1 -0.3 z" style="stroke: none; stroke-width: 1; stroke-dasharray: none; stroke-linecap: butt; stroke-linejoin: miter; stroke-miterlimit: 4; fill: rgb(24,25,31); fill-rule: nonzero; opacity: 1;" transform="translate(-3.15 -7.1) translate(-105.35, -3.4) " stroke-linecap="round" />
	<path d="M 213.2 3.5 l -0.1 -0.3 V 3 h -0.1 l -1.1 -1.1 l -1.1 -1.1 l -0.1 -0.1 h -0.2 l -0.3 -0.1 l -0.2 -0.1 l 0.1 0.2 l 0.1 0.3 v 0.2 l 0.1 0.1 l 1.1 1.1 l 1.1 1.1 l -1.1 1.1 l -1.1 1.1 l -0.1 0.1 V 6 l -0.1 0.3 l -0.1 0.2 l 0.2 -0.1 l 0.3 -0.1 h 0.2 l 0.1 -0.1 l 1.1 -1.1 L 213 4 l 0.1 -0.1 l 0.1 -0.4 z" style="stroke: none; stroke-width: 1; stroke-dasharray: none; stroke-linecap: butt; stroke-linejoin: miter; stroke-miterlimit: 4; fill: rgb(24,25,31); fill-rule: nonzero; opacity: 1;" transform="translate(103.1 -7) translate(-211.60000000000002, -3.5) " stroke-linecap="round" />
</g>
	<g id="text-1" transform="translate(512 674.399512) scale(2.938288 2.938288)">
		<text xml:space="preserve" font-family="Arima Madurai" font-size="67.57479892761394" font-style="normal" font-weight="normal" style="stroke: none; stroke-width: 0; stroke-dasharray: none; stroke-linecap: butt; stroke-linejoin: miter; stroke-miterlimit: 4; fill: rgb(24,25,31); fill-rule: nonzero; opacity: 1; white-space: pre;" ><tspan x="-140.217708" y="21.227947" >HISTORIA</tspan></text>
	</g>
<g id="icon-1" transform="translate(519.193739 354.632728) scale(3.613756 3.613756)" style="">
	<path d="M 33.4119194 79.7519274 L 40.5481168 73.8530233 L 65.5333333 73.8530233 C 75.4744588 73.8530233 83.5333333 65.7941488 83.5333333 55.8530233 L 83.5333333 38 C 83.5333333 28.0588745 75.4744588 20 65.5333333 20 L 34.4666667 20 C 24.5255412 20 16.4666667 28.0588745 16.4666667 38 L 16.4666667 58.9077706 C 16.4666667 67.1618057 23.1578842 73.8530233 31.4119194 73.8530233 L 33.4119194 73.8530233 L 33.4119194 79.7519274 Z M 34.4666667 18 L 65.5333333 18 C 76.5790283 18 85.5333333 26.954305 85.5333333 38 L 85.5333333 55.8530233 C 85.5333333 66.8987183 76.5790283 75.8530233 65.5333333 75.8530233 L 41.267722 75.8530233 L 31.4119194 84 L 31.4119194 75.8530233 C 22.0533147 75.8530233 14.4666667 68.2663752 14.4666667 58.9077706 L 14.4666667 38 C 14.4666667 26.954305 23.4209717 18 34.4666667 18 Z" style="stroke: none; stroke-width: 1; stroke-dasharray: none; stroke-linecap: butt; stroke-linejoin: miter; stroke-miterlimit: 4; fill: rgb(24,25,31); fill-rule: nonzero; opacity: 1;" transform="translate(0 1) translate(-49.99999999999999, -51) " stroke-linecap="round" />
	<path d="M 64 57.2146321 C 64 58.2334948 63.8909946 59.2389075 63.6767599 60.2184982 L 63.5047862 61.0048495 L 62.6998493 61.0048495 L 37.3001507 61.0048495 L 36.4952138 61.0048495 L 36.3232401 60.2184982 C 36.1090054 59.2389075 36 58.2334948 36 57.2146321 C 36 51.8253444 39.0732585 47.0197035 43.7423261 44.6870201 C 42.0814346 43.0224941 41.1079168 40.7495477 41.1079168 38.3127871 C 41.1079168 33.3274638 45.1493199 29.2860607 50.1346433 29.2860607 C 55.1199666 29.2860607 59.1613697 33.3274638 59.1613697 38.3127871 C 59.1613697 40.7951528 58.1509284 43.1064426 56.4354167 44.7775579 C 61.0085082 47.1445717 64 51.8976735 64 57.2146321 Z M 62 57.2146321 C 62 52.1595269 58.845305 47.6988988 54.1855921 45.9644984 L 52.3344776 45.2754917 L 53.9855662 44.1913969 C 55.9529109 42.8996504 57.1613697 40.7098234 57.1613697 38.3127871 C 57.1613697 34.4320333 54.0153971 31.2860607 50.1346433 31.2860607 C 46.2538894 31.2860607 43.1079168 34.4320333 43.1079168 38.3127871 C 43.1079168 40.6743938 44.2806166 42.8358916 46.2004482 44.1358698 L 47.8362662 45.2435335 L 45.975095 45.9059994 C 41.2324439 47.5941002 38 52.0975729 38 57.2146321 C 38 57.8185533 38.0445329 58.4163789 38.1324934 59.0048497 L 61.8675058 59.0048495 C 61.9554671 58.4163789 62 57.8185533 62 57.2146321 Z" style="stroke: none; stroke-width: 1; stroke-dasharray: none; stroke-linecap: butt; stroke-linejoin: miter; stroke-miterlimit: 4; fill: rgb(24,25,31); fill-rule: nonzero; opacity: 1;" transform="translate(0 -4.854545) translate(-50, -45.1454551) " stroke-linecap="round" />
</g>
</svg>