<?xml version="1.0" encoding="UTF-8" standalone="no" ?>
<!DOCTYPE svg PUBLIC "-//W3C//DTD SVG 1.1//EN" "http://www.w3.org/Graphics/SVG/1.1/DTD/svg11.dtd">
<svg xmlns="http://www.w3.org/2000/svg" xmlns:xlink="http://www.w3.org/1999/xlink" version="1.1" width="1024" height="1024" viewBox="0 0 1024 1024" xml:space="preserve">
<desc>Created with Fabric.js 2.3.6</desc>
<defs>
</defs>
<rect x="-512" y="-512" rx="0" ry="0" width="1024" height="1024" style="stroke: none; stroke-width: 0; stroke-dasharray: none; stroke-linecap: butt; stroke-linejoin: miter; stroke-miterlimit: 4; fill: rgb(255,221,221); fill-rule: nonzero; opacity: 1;" transform="translate(512 512)"/>
<g id="icon-2" transform="translate(512 823.760027) scale(3.797235 3.797235)" style="">
	<path d="M 205.2 3.7 H 7.2 c -0.2 0 -0.3 -0.1 -0.3 -0.3 c 0 -0.2 0.1 -0.3 0.3 -0.3 h 198.1 c 0.2 0 0.3 0.1 0.3 0.3 c 0 0.2 -0.2 0.3 -0.4 0.3 z M 5.6 1.1 l 0.1 0.1 l 1.8 1.9 H 2 l -2 -2 z" style="stroke: none; stroke-width: 1; stroke-dasharray: none; stroke-linecap: butt; stroke-linejoin: miter; stroke-miterlimit: 4; fill: rgb(24,25,31); fill-rule: nonzero; opacity: 1;" transform="translate(-5.7 -8.1) translate(-102.8, -2.4000000000000004) " stroke-linecap="round" />
	<path d="M 0 5.6 l 2 -1.9 h 5.6 c -0.7 0.5 -1.4 1.2 -2 1.9 H 0 z m 210.7 -2.1 l -0.1 -0.3 V 3 l -0.1 -0.1 l -1.1 -1.1 l -1.1 -1.1 l -0.1 -0.1 h -0.2 l -0.3 -0.1 l -0.2 -0.1 l 0.1 0.2 l 0.1 0.3 v 0.2 l 0.1 0.1 l 1.1 1.1 l 1.1 1.1 l -1.1 1.1 l -1.1 1.1 l -0.1 0.1 v 0.2 l -0.1 0.3 l -0.1 0.2 l 0.2 -0.1 l 0.3 -0.1 h 0.2 l 0.1 -0.1 l 1.1 -1.1 l 1.1 -1.1 l 0.1 -0.1 l 0.1 -0.3 z" style="stroke: none; stroke-width: 1; stroke-dasharray: none; stroke-linecap: butt; stroke-linejoin: miter; stroke-miterlimit: 4; fill: rgb(24,25,31); fill-rule: nonzero; opacity: 1;" transform="translate(-3.15 -7.1) translate(-105.35, -3.4) " stroke-linecap="round" />
	<path d="M 213.2 3.5 l -0.1 -0.3 V 3 h -0.1 l -1.1 -1.1 l -1.1 -1.1 l -0.1 -0.1 h -0.2 l -0.3 -0.1 l -0.2 -0.1 l 0.1 0.2 l 0.1 0.3 v 0.2 l 0.1 0.1 l 1.1 1.1 l 1.1 1.1 l -1.1 1.1 l -1.1 1.1 l -0.1 0.1 V 6 l -0.1 0.3 l -0.1 0.2 l 0.2 -0.1 l 0.3 -0.1 h 0.2 l 0.1 -0.1 l 1.1 -1.1 L 213 4 l 0.1 -0.1 l 0.1 -0.4 z" style="stroke: none; stroke-width: 1; stroke-dasharray: none; stroke-linecap: butt; stroke-linejoin: miter; stroke-miterlimit: 4; fill: rgb(24,25,31); fill-rule: nonzero; opacity: 1;" transform="translate(103.1 -7) translate(-211.60000000000002, -3.5) " stroke-linecap="round" />
</g>
	<g id="text-1" transform="translate(504.511009 680.976959) scale(3.058884 3.058884)">
		<text xml:space="preserve" font-family="Arima Madurai" font-size="67.57479892761394" font-style="normal" font-weight="normal" style="stroke: none; stroke-width: 0; stroke-dasharray: none; stroke-linecap: butt; stroke-linejoin: miter; stroke-miterlimit: 4; fill: rgb(24,25,31); fill-rule: nonzero; opacity: 1; white-space: pre;" ><tspan x="-96.294088" y="21.227947" >TAREA</tspan></text>
	</g>
<g id="icon-1" transform="translate(512 348.472777) scale(3.762075 3.762075)" style="">
	<path d="M 23 22 C 22.4477153 22 22 22.4477153 22 23 L 22 77 C 22 77.5522847 22.4477153 78 23 78 L 77 78 C 77.5522847 78 78 77.5522847 78 77 L 78 23 C 78 22.4477153 77.5522847 22 77 22 L 23 22 Z M 23 20 L 77 20 C 78.6568542 20 80 21.3431458 80 23 L 80 77 C 80 78.6568542 78.6568542 80 77 80 L 23 80 C 21.3431458 80 20 78.6568542 20 77 L 20 23 C 20 21.3431458 21.3431458 20 23 20 Z" style="stroke: none; stroke-width: 1; stroke-dasharray: none; stroke-linecap: butt; stroke-linejoin: miter; stroke-miterlimit: 4; fill: rgb(24,25,31); fill-rule: nonzero; opacity: 1;" transform="translate(0 0) translate(-50, -50) " stroke-linecap="round" />
	<path d="M 25 79 L 27 79 L 27 82 C 27 82.5522847 27.4477153 83 28 83 L 82 83 C 82.5522847 83 83 82.5522847 83 82 L 83 28 C 83 27.4477153 82.5522847 27 82 27 L 79 27 L 79 25 L 82 25 C 83.6568542 25 85 26.3431458 85 28 L 85 82 C 85 83.6568542 83.6568542 85 82 85 L 28 85 C 26.3431458 85 25 83.6568542 25 82 L 25 79 Z M 27 79 L 27 82 C 27 82.5522847 27.4477153 83 28 83 L 82 83 C 82.5522847 83 83 82.5522847 83 82 L 83 28 C 83 27.4477153 82.5522847 27 82 27 L 79 27 L 79 25 L 82 25 C 83.6568542 25 85 26.3431458 85 28 L 85 82 C 85 83.6568542 83.6568542 85 82 85 L 28 85 C 26.3431458 85 25 83.6568542 25 82 L 25 79 L 27 79 Z" style="stroke: none; stroke-width: 1; stroke-dasharray: none; stroke-linecap: butt; stroke-linejoin: miter; stroke-miterlimit: 4; fill: rgb(24,25,31); fill-rule: nonzero; opacity: 1;" transform="translate(5 5) translate(-55, -55) " stroke-linecap="round" />
	<path d="M 28.2071068 39.2071068 C 27.8165825 39.5976311 27.1834175 39.5976311 26.7928932 39.2071068 C 26.4023689 38.8165825 26.4023689 38.1834175 26.7928932 37.7928932 L 35.703042 28.8827444 C 36.0935663 28.4922201 36.7267313 28.4922201 37.1172556 28.8827444 C 37.5077799 29.2732687 37.5077799 29.9064337 37.1172556 30.296958 L 28.2071068 39.2071068 Z" style="stroke: none; stroke-width: 1; stroke-dasharray: none; stroke-linecap: butt; stroke-linejoin: miter; stroke-miterlimit: 4; fill: rgb(24,25,31); fill-rule: nonzero; opacity: 1;" transform="translate(-18.044926 -15.955074) translate(-31.955074400000004, -34.044925600000006) " stroke-linecap="round" />
	<path d="M 29.2071068 45.2071068 C 28.8165825 45.5976311 28.1834175 45.5976311 27.7928932 45.2071068 C 27.4023689 44.8165825 27.4023689 44.1834175 27.7928932 43.7928932 L 36.703042 34.8827444 C 37.0935663 34.4922201 37.7267313 34.4922201 38.1172556 34.8827444 C 38.5077799 35.2732687 38.5077799 35.9064337 38.1172556 36.296958 L 29.2071068 45.2071068 Z" style="stroke: none; stroke-width: 1; stroke-dasharray: none; stroke-linecap: butt; stroke-linejoin: miter; stroke-miterlimit: 4; fill: rgb(24,25,31); fill-rule: nonzero; opacity: 1;" transform="translate(-17.044926 -9.955074) translate(-32.9550744, -40.0449256) " stroke-linecap="round" />
	<path d="M 66 26 C 66 25.4477153 66.4477153 25 67 25 C 67.5522847 25 68 25.4477153 68 26 L 68 36.5 C 68 38.9852814 65.9852814 41 63.5 41 C 61.0147186 41 59 38.9852814 59 36.5 L 59 16.5 C 59 13.4624339 61.4624339 11 64.5 11 C 67.5375661 11 70 13.4624339 70 16.5 L 70 20 C 70 20.5522847 69.5522847 21 69 21 C 68.4477153 21 68 20.5522847 68 20 L 68 16.5 C 68 14.5670034 66.4329966 13 64.5 13 C 62.5670034 13 61 14.5670034 61 16.5 L 61 36.5 C 61 37.8807119 62.1192881 39 63.5 39 C 64.8807119 39 66 37.8807119 66 36.5 L 66 26 Z" style="stroke: none; stroke-width: 1; stroke-dasharray: none; stroke-linecap: butt; stroke-linejoin: miter; stroke-miterlimit: 4; fill: rgb(24,25,31); fill-rule: nonzero; opacity: 1;" transform="translate(14.5 -24) translate(-64.5, -26) " stroke-linecap="round" />
</g>
</svg>