<?xml version="1.0" encoding="UTF-8" standalone="no" ?>
<!DOCTYPE svg PUBLIC "-//W3C//DTD SVG 1.1//EN" "http://www.w3.org/Graphics/SVG/1.1/DTD/svg11.dtd">
<svg xmlns="http://www.w3.org/2000/svg" xmlns:xlink="http://www.w3.org/1999/xlink" version="1.1" width="1024" height="1024" viewBox="0 0 1024 1024" xml:space="preserve">
<desc>Created with Fabric.js 2.3.6</desc>
<defs>
</defs>
<rect x="-512" y="-512" rx="0" ry="0" width="1024" height="1024" style="stroke: none; stroke-width: 0; stroke-dasharray: none; stroke-linecap: butt; stroke-linejoin: miter; stroke-miterlimit: 4; fill: rgb(97,225,228); fill-rule: nonzero; opacity: 1;" transform="translate(512 512)"/>
<g id="icon-2" transform="translate(518.450015 782.889121) scale(3.258847 3.258847)" style="">
	<path d="M 205.2 3.7 H 7.2 c -0.2 0 -0.3 -0.1 -0.3 -0.3 c 0 -0.2 0.1 -0.3 0.3 -0.3 h 198.1 c 0.2 0 0.3 0.1 0.3 0.3 c 0 0.2 -0.2 0.3 -0.4 0.3 z M 5.6 1.1 l 0.1 0.1 l 1.8 1.9 H 2 l -2 -2 z" style="stroke: none; stroke-width: 1; stroke-dasharray: none; stroke-linecap: butt; stroke-linejoin: miter; stroke-miterlimit: 4; fill: rgb(24,25,31); fill-rule: nonzero; opacity: 1;" transform="translate(-5.7 -8.1) translate(-102.8, -2.4000000000000004) " stroke-linecap="round" />
	<path d="M 0 5.6 l 2 -1.9 h 5.6 c -0.7 0.5 -1.4 1.2 -2 1.9 H 0 z m 210.7 -2.1 l -0.1 -0.3 V 3 l -0.1 -0.1 l -1.1 -1.1 l -1.1 -1.1 l -0.1 -0.1 h -0.2 l -0.3 -0.1 l -0.2 -0.1 l 0.1 0.2 l 0.1 0.3 v 0.2 l 0.1 0.1 l 1.1 1.1 l 1.1 1.1 l -1.1 1.1 l -1.1 1.1 l -0.1 0.1 v 0.2 l -0.1 0.3 l -0.1 0.2 l 0.2 -0.1 l 0.3 -0.1 h 0.2 l 0.1 -0.1 l 1.1 -1.1 l 1.1 -1.1 l 0.1 -0.1 l 0.1 -0.3 z" style="stroke: none; stroke-width: 1; stroke-dasharray: none; stroke-linecap: butt; stroke-linejoin: miter; stroke-miterlimit: 4; fill: rgb(24,25,31); fill-rule: nonzero; opacity: 1;" transform="translate(-3.15 -7.1) translate(-105.35, -3.4) " stroke-linecap="round" />
	<path d="M 213.2 3.5 l -0.1 -0.3 V 3 h -0.1 l -1.1 -1.1 l -1.1 -1.1 l -0.1 -0.1 h -0.2 l -0.3 -0.1 l -0.2 -0.1 l 0.1 0.2 l 0.1 0.3 v 0.2 l 0.1 0.1 l 1.1 1.1 l 1.1 1.1 l -1.1 1.1 l -1.1 1.1 l -0.1 0.1 V 6 l -0.1 0.3 l -0.1 0.2 l 0.2 -0.1 l 0.3 -0.1 h 0.2 l 0.1 -0.1 l 1.1 -1.1 L 213 4 l 0.1 -0.1 l 0.1 -0.4 z" style="stroke: none; stroke-width: 1; stroke-dasharray: none; stroke-linecap: butt; stroke-linejoin: miter; stroke-miterlimit: 4; fill: rgb(24,25,31); fill-rule: nonzero; opacity: 1;" transform="translate(103.1 -7) translate(-211.60000000000002, -3.5) " stroke-linecap="round" />
</g>
	<g id="text-1" transform="translate(512 660.097009) scale(2.615313 2.615313)">
		<text xml:space="preserve" font-family="Arima Madurai" font-size="67.57479892761394" font-style="normal" font-weight="normal" style="stroke: none; stroke-width: 0; stroke-dasharray: none; stroke-linecap: butt; stroke-linejoin: miter; stroke-miterlimit: 4; fill: rgb(24,25,31); fill-rule: nonzero; opacity: 1; white-space: pre;" ><tspan x="-157.53375" y="21.227947" >INICIATIVA</tspan></text>
	</g>
<g id="icon-1" transform="translate(518.450015 374.272967) scale(3.719555 3.719555)" style="">
	<path d="M 45.2 90 c 3.8 -0.2 6.9 -2 7.4 -4.3 l -15.3 0.8 C 38.1 88.7 41.3 90.2 45.2 90 z" style="stroke: none; stroke-width: 1; stroke-dasharray: none; stroke-linecap: butt; stroke-linejoin: miter; stroke-miterlimit: 4; fill: rgb(24,25,31); fill-rule: nonzero; opacity: 1;" transform="translate(-0.05 42.858928) translate(-44.95, -87.85892803658444) " stroke-linecap="round" />
	<path d="M 57.4 72.6 l -25 1.3 c -0.9 0 -1.6 0.8 -1.5 1.7 c 0 0.9 0.8 1.5 1.6 1.5 c 0 0 0.1 0 0.1 0 l 25 -1.3 c 0.9 0 1.6 -0.8 1.5 -1.7 C 59.1 73.2 58.3 72.5 57.4 72.6 z" style="stroke: none; stroke-width: 1; stroke-dasharray: none; stroke-linecap: butt; stroke-linejoin: miter; stroke-miterlimit: 4; fill: rgb(24,25,31); fill-rule: nonzero; opacity: 1;" transform="translate(0 29.845237) translate(-45, -74.84523655516637) " stroke-linecap="round" />
	<path d="M 57.4 76.5 l -25 1.3 c -0.9 0 -1.6 0.8 -1.5 1.7 c 0 0.9 0.8 1.5 1.6 1.5 c 0 0 0.1 0 0.1 0 l 25 -1.3 c 0.9 0 1.6 -0.8 1.5 -1.7 C 59.1 77.1 58.3 76.4 57.4 76.5 z" style="stroke: none; stroke-width: 1; stroke-dasharray: none; stroke-linecap: butt; stroke-linejoin: miter; stroke-miterlimit: 4; fill: rgb(24,25,31); fill-rule: nonzero; opacity: 1;" transform="translate(0 33.745237) translate(-45, -78.74523655516637) " stroke-linecap="round" />
	<path d="M 57.4 80.4 l -25 1.3 c -0.9 0 -1.6 0.8 -1.5 1.7 c 0 0.9 0.8 1.5 1.6 1.5 c 0 0 0.1 0 0.1 0 l 25 -1.3 c 0.9 0 1.6 -0.8 1.5 -1.7 C 59.1 81.1 58.3 80.4 57.4 80.4 z" style="stroke: none; stroke-width: 1; stroke-dasharray: none; stroke-linecap: butt; stroke-linejoin: miter; stroke-miterlimit: 4; fill: rgb(24,25,31); fill-rule: nonzero; opacity: 1;" transform="translate(0 37.65) translate(-45, -82.65) " stroke-linecap="round" />
	<path d="M 45 17.6 c -13.2 0 -23.9 11 -23.9 24.6 c 0 6.5 2.4 12.5 6.8 17.2 c 1.5 1.6 1.8 3.9 2.1 6.1 c 0.3 2.8 0.7 5.5 3.8 6 v 0 h 0.1 c 0 0 0 0 0 0 h 22.2 l 0 0 c 3.2 -0.4 3.6 -3.1 3.9 -6 c 0.3 -2.2 0.5 -4.5 2.1 -6.1 c 4.4 -4.6 6.8 -10.7 6.8 -17.2 C 68.9 28.6 58.2 17.6 45 17.6 z M 61.8 59 c -1.6 1.7 -1.9 4.2 -2.2 6.3 c -0.3 2.8 -0.6 5.2 -3.5 5.6 v -1.1 h -6.8 l -0.6 -10.3 h -0.9 v -6 H 45 h -2.8 v 6 h -0.9 l -0.6 10.3 h -6.8 V 71 c -2.8 -0.4 -3.1 -2.8 -3.4 -5.6 c -0.3 -2.2 -0.6 -4.6 -2.2 -6.3 c -4.3 -4.5 -6.7 -10.5 -6.7 -16.9 C 21.5 28.8 32 18 45 18 c 13 0 23.5 10.8 23.5 24.2 C 68.5 48.5 66.1 54.5 61.8 59 z" style="stroke: none; stroke-width: 1; stroke-dasharray: none; stroke-linecap: butt; stroke-linejoin: miter; stroke-miterlimit: 4; fill: rgb(24,25,31); fill-rule: nonzero; opacity: 1;" transform="translate(0 -0.45) translate(-45, -44.55) " stroke-linecap="round" />
	<path d="M 60.1 38.7 c 0.2 -0.6 0.3 -1.2 0.3 -1.8 c 0 -3.7 -3.1 -6.6 -7 -6.6 c -0.3 0 -0.6 0 -0.9 0.1 c -0.9 -2.7 -3.6 -4.6 -6.6 -4.6 c -2.7 0 -5.2 1.5 -6.3 3.8 c -0.6 -0.2 -1.2 -0.2 -1.9 -0.2 c -3.8 0 -7 3 -7 6.6 c 0 0.6 0.1 1.3 0.3 1.9 c -2.7 1 -4.5 3.6 -4.5 6.4 c 0 3.8 3.2 6.9 7.2 6.9 c 1.6 0 3.1 -0.5 4.3 -1.4 c 1.8 1.4 4.2 2.2 6.8 2.2 c 2.7 0 5.3 -0.9 7 -2.4 c 1.3 1 2.8 1.6 4.5 1.6 c 3.8 0 7 -3 7 -6.6 C 63.4 42.1 62.2 39.9 60.1 38.7 z M 56.5 50.6 c -1.6 0 -3.1 -0.6 -4.3 -1.6 L 52 48.9 L 51.8 49 c -1.7 1.5 -4.2 2.4 -6.9 2.4 c -2.6 0 -5 -0.8 -6.7 -2.2 l -0.1 -0.1 L 38 49.2 c -1.2 0.9 -2.7 1.4 -4.2 1.4 c -3.8 0 -6.8 -2.9 -6.8 -6.5 c 0 -2.7 1.8 -5.1 4.4 -6 l 0.2 -0.1 l -0.1 -0.2 c -0.2 -0.6 -0.3 -1.3 -0.3 -1.9 c 0 -3.4 2.9 -6.2 6.6 -6.2 c 0.6 0 1.3 0.1 1.9 0.3 l 0.2 0 l 0.1 -0.2 c 1 -2.3 3.4 -3.7 6 -3.7 c 2.9 0 5.5 1.8 6.3 4.5 l 0.1 0.2 l 0.2 0 c 0.4 -0.1 0.7 -0.1 1 -0.1 c 3.6 0 6.6 2.8 6.6 6.2 c 0 0.6 -0.1 1.3 -0.3 1.9 l -0.1 0.2 l 0.1 0.1 c 2 1.1 3.2 3.2 3.2 5.4 C 63 47.8 60.1 50.6 56.5 50.6 z" style="stroke: none; stroke-width: 1; stroke-dasharray: none; stroke-linecap: butt; stroke-linejoin: miter; stroke-miterlimit: 4; fill: rgb(24,25,31); fill-rule: nonzero; opacity: 1;" transform="translate(-0.097104 -6.1) translate(-44.90289609674842, -38.900000000000006) " stroke-linecap="round" />
	<path d="M 34.2 36.7 c 0 0 2 0 3.5 -1.2 c 0.3 0.1 1 0.4 1.3 1 c 0.1 0.1 0.2 0.2 0.4 0.2 c 0.1 0 0.1 0 0.2 0 c 0.2 -0.1 0.3 -0.3 0.2 -0.5 c -0.3 -0.7 -0.9 -1.1 -1.4 -1.3 c 0.4 -0.5 0.8 -1 1 -1.7 c 0.1 -0.2 0 -0.4 -0.3 -0.5 c -0.2 -0.1 -0.4 0 -0.5 0.3 c -1 3 -4.3 3 -4.4 3 c -0.2 0 -0.4 0.2 -0.4 0.4 C 33.8 36.6 34 36.7 34.2 36.7 z" style="stroke: none; stroke-width: 1; stroke-dasharray: none; stroke-linecap: butt; stroke-linejoin: miter; stroke-miterlimit: 4; fill: rgb(24,25,31); fill-rule: nonzero; opacity: 1;" transform="translate(-8.180385 -10.31875) translate(-36.81961524227067, -34.681250000000006) " stroke-linecap="round" />
	<path d="M 37.2 44.2 c -1.1 -0.1 -2 0.6 -2.5 1.1 c -1.2 -1 -3.9 -1.1 -4.2 -1.1 c 0 0 0 0 0 0 c -0.2 0 -0.4 0.2 -0.4 0.4 c 0 0.2 0.2 0.4 0.4 0.4 c 1.2 0 3.2 0.3 3.8 1 c -0.1 0.4 -0.4 1.7 -1.2 1.7 c -0.2 0 -0.4 0.2 -0.4 0.4 s 0.2 0.4 0.4 0.4 c 0 0 0.1 0 0.1 0 c 1.4 0 1.9 -1.5 2 -2.5 c 0.2 -0.3 1.1 -1.1 2 -1 c 0.2 0 0.4 -0.1 0.5 -0.3 C 37.5 44.4 37.4 44.2 37.2 44.2 z" style="stroke: none; stroke-width: 1; stroke-dasharray: none; stroke-linecap: butt; stroke-linejoin: miter; stroke-miterlimit: 4; fill: rgb(24,25,31); fill-rule: nonzero; opacity: 1;" transform="translate(-11.1 1.345183) translate(-33.900000000000006, -46.34518266166913) " stroke-linecap="round" />
	<path d="M 52.2 37 c 0 -0.3 0.2 -0.5 0.5 -0.7 c 0.2 -0.1 0.2 -0.4 0.1 -0.6 c -0.1 -0.2 -0.4 -0.2 -0.6 -0.1 c -0.5 0.4 -0.7 0.8 -0.8 1.3 c 0 0.4 0.1 0.8 0.2 1.1 c -0.8 0 -1.6 0.2 -2.2 0.6 c -0.7 0.5 -1.1 1.1 -1.4 1.7 c -0.8 -1.3 -1.7 -2 -2.8 -2.2 c -1.6 -0.2 -3 0.9 -3.5 1.4 c -1.2 -0.5 -2.3 -0.4 -3.1 0.1 c -1.3 0.8 -1.4 2.6 -1.4 2.6 c 0 0.2 0.2 0.4 0.4 0.4 c 0 0 0 0 0 0 c 0.2 0 0.4 -0.2 0.4 -0.4 c 0 0 0.1 -1.4 1.1 -2 c 0.6 -0.4 1.5 -0.3 2.6 0.1 c 0.2 0.1 0.3 0 0.5 -0.1 c 0 0 1.4 -1.6 3 -1.3 c 1 0.1 1.9 1 2.7 2.5 c 0.1 0.2 0.2 0.2 0.4 0.2 c 0.2 0 0.3 -0.2 0.3 -0.3 c 0 0 0.3 -1.4 1.3 -2.1 c 0.6 -0.4 1.5 -0.6 2.5 -0.3 c 0.2 0 0.3 0 0.4 -0.2 c 0.1 -0.2 0.1 -0.3 -0.1 -0.5 C 52.8 38.3 52.2 37.6 52.2 37 z" style="stroke: none; stroke-width: 1; stroke-dasharray: none; stroke-linecap: butt; stroke-linejoin: miter; stroke-miterlimit: 4; fill: rgb(24,25,31); fill-rule: nonzero; opacity: 1;" transform="translate(0.032843 -5.932843) translate(-45.03284271247463, -39.067157287525376) " stroke-linecap="round" />
	<path d="M 50.1 31.8 c 0.1 0.5 0.2 1.2 0.7 1.6 c 0.3 0.3 0.7 0.4 1.2 0.4 c 0.2 0 0.3 0 0.5 -0.1 c 0.2 0 0.4 -0.3 0.3 -0.5 c 0 -0.2 -0.3 -0.4 -0.5 -0.3 c -0.5 0.1 -0.8 0 -1.1 -0.2 c -0.4 -0.4 -0.5 -1.2 -0.5 -1.5 c 0 -0.1 0 -0.2 -0.1 -0.3 c -0.1 -0.1 -0.2 -0.1 -0.3 -0.1 c -3.5 0.7 -4.6 -1.1 -4.6 -1.2 c -0.1 -0.2 -0.4 -0.3 -0.6 -0.2 c -0.2 0.1 -0.3 0.4 -0.2 0.6 C 45.1 30.2 46.3 32.3 50.1 31.8 z" style="stroke: none; stroke-width: 1; stroke-dasharray: none; stroke-linecap: butt; stroke-linejoin: miter; stroke-miterlimit: 4; fill: rgb(24,25,31); fill-rule: nonzero; opacity: 1;" transform="translate(3.843684 -13.419615) translate(-48.843684073914886, -31.580384757729334) " stroke-linecap="round" />
	<path d="M 47 48.5 c -0.5 0 -1.2 -0.2 -1.4 -0.6 c -0.2 -0.4 0.1 -1.1 0.2 -1.3 c 0.1 -0.1 0.1 -0.2 0 -0.4 c 0 -0.1 -0.1 -0.2 -0.3 -0.2 c -1.4 -0.4 -1.3 -2 -1.3 -2 c 0 -0.2 -0.2 -0.4 -0.4 -0.4 c -0.2 0 -0.4 0.2 -0.4 0.4 c 0 0.7 0.2 2 1.4 2.7 c -0.2 0.4 -0.3 1.1 0 1.7 c 0.3 0.6 1 1 2.1 1.1 c 0 0 0 0 0 0 c 0.2 0 0.4 -0.2 0.4 -0.4 C 47.3 48.7 47.2 48.5 47 48.5 z" style="stroke: none; stroke-width: 1; stroke-dasharray: none; stroke-linecap: butt; stroke-linejoin: miter; stroke-miterlimit: 4; fill: rgb(24,25,31); fill-rule: nonzero; opacity: 1;" transform="translate(0.35 1.55) translate(-45.35000000000001, -46.550000000000004) " stroke-linecap="round" />
	<path d="M 60.4 43.5 c -0.2 -0.1 -0.4 0 -0.5 0.2 c -0.8 2.1 -3.4 1.7 -3.5 1.6 c -0.2 0 -0.4 0.1 -0.5 0.3 c -0.2 1 -1.1 1.3 -1.1 1.3 c -0.2 0.1 -0.3 0.3 -0.3 0.5 c 0.1 0.2 0.2 0.3 0.4 0.3 c 0 0 0.1 0 0.1 0 c 0.1 0 1.2 -0.4 1.6 -1.6 c 1.2 0.1 3.3 -0.2 4 -2.2 C 60.7 43.9 60.6 43.6 60.4 43.5 z" style="stroke: none; stroke-width: 1; stroke-dasharray: none; stroke-linecap: butt; stroke-linejoin: miter; stroke-miterlimit: 4; fill: rgb(24,25,31); fill-rule: nonzero; opacity: 1;" transform="translate(12.569615 0.580385) translate(-57.56961524227067, -45.580384757729334) " stroke-linecap="round" />
	<path d="M 55.9 40.4 C 55.9 40.4 55.9 40.4 55.9 40.4 c 0.1 0.1 0.1 0.1 0.1 0.1 c 0 0 1.7 1 1.2 2.1 c -0.1 0.2 0 0.4 0.2 0.5 c 0.1 0 0.1 0 0.2 0 c 0.2 0 0.3 -0.1 0.4 -0.2 c 0.6 -1.3 -0.5 -2.3 -1.1 -2.8 c 0.5 -0.5 1.4 -1.5 1.1 -2.8 c 0 -0.2 -0.3 -0.4 -0.5 -0.3 c -0.2 0 -0.4 0.3 -0.3 0.5 c 0.2 0.9 -0.6 1.7 -1 2.1 c -1.1 -0.9 -3 -0.2 -3.1 -0.2 c -0.2 0.1 -0.3 0.3 -0.2 0.5 c 0.1 0.2 0.3 0.3 0.5 0.2 C 53.9 40 55.3 39.7 55.9 40.4 z" style="stroke: none; stroke-width: 1; stroke-dasharray: none; stroke-linecap: butt; stroke-linejoin: miter; stroke-miterlimit: 4; fill: rgb(24,25,31); fill-rule: nonzero; opacity: 1;" transform="translate(10.517204 -4.963299) translate(-55.51720384068891, -40.03670068381446) " stroke-linecap="round" />
	<polygon points="2.4,-8.3 -2.4,-8.3 0,8.3 " style="stroke: none; stroke-width: 1; stroke-dasharray: none; stroke-linecap: butt; stroke-linejoin: miter; stroke-miterlimit: 4; fill: rgb(24,25,31); fill-rule: nonzero; opacity: 1;" transform="translate(0 -36.7) "/>
	<polygon points="-0.95,-7.85 -5.25,-5.35 5.25,7.85 " style="stroke: none; stroke-width: 1; stroke-dasharray: none; stroke-linecap: butt; stroke-linejoin: miter; stroke-miterlimit: 4; fill: rgb(24,25,31); fill-rule: nonzero; opacity: 1;" transform="translate(-19.15 -32.45) "/>
	<polygon points="-7.85,-0.95 7.85,5.25 -5.35,-5.25 " style="stroke: none; stroke-width: 1; stroke-dasharray: none; stroke-linecap: butt; stroke-linejoin: miter; stroke-miterlimit: 4; fill: rgb(24,25,31); fill-rule: nonzero; opacity: 1;" transform="translate(-31.95 -19.65) "/>
	<polygon points="-8.3,-2.4 -8.3,2.4 8.3,0 " style="stroke: none; stroke-width: 1; stroke-dasharray: none; stroke-linecap: butt; stroke-linejoin: miter; stroke-miterlimit: 4; fill: rgb(24,25,31); fill-rule: nonzero; opacity: 1;" transform="translate(-36.2 -0.5) "/>
	<polygon points="-5.35,5.25 7.85,-5.25 -7.85,0.95 " style="stroke: none; stroke-width: 1; stroke-dasharray: none; stroke-linecap: butt; stroke-linejoin: miter; stroke-miterlimit: 4; fill: rgb(24,25,31); fill-rule: nonzero; opacity: 1;" transform="translate(-31.95 18.65) "/>
	<polygon points="5.35,5.25 7.85,0.95 -7.85,-5.25 " style="stroke: none; stroke-width: 1; stroke-dasharray: none; stroke-linecap: butt; stroke-linejoin: miter; stroke-miterlimit: 4; fill: rgb(24,25,31); fill-rule: nonzero; opacity: 1;" transform="translate(31.95 18.65) "/>
	<polygon points="-8.3,0 8.3,2.4 8.3,-2.4 " style="stroke: none; stroke-width: 1; stroke-dasharray: none; stroke-linecap: butt; stroke-linejoin: miter; stroke-miterlimit: 4; fill: rgb(24,25,31); fill-rule: nonzero; opacity: 1;" transform="translate(36.2 -0.5) "/>
	<polygon points="7.85,-0.95 5.35,-5.25 -7.85,5.25 " style="stroke: none; stroke-width: 1; stroke-dasharray: none; stroke-linecap: butt; stroke-linejoin: miter; stroke-miterlimit: 4; fill: rgb(24,25,31); fill-rule: nonzero; opacity: 1;" transform="translate(31.95 -19.65) "/>
	<polygon points="0.95,-7.85 -5.25,7.85 5.25,-5.35 " style="stroke: none; stroke-width: 1; stroke-dasharray: none; stroke-linecap: butt; stroke-linejoin: miter; stroke-miterlimit: 4; fill: rgb(24,25,31); fill-rule: nonzero; opacity: 1;" transform="translate(19.15 -32.45) "/>
</g>
</svg>