<?xml version="1.0" encoding="UTF-8" standalone="no" ?>
<!DOCTYPE svg PUBLIC "-//W3C//DTD SVG 1.1//EN" "http://www.w3.org/Graphics/SVG/1.1/DTD/svg11.dtd">
<svg xmlns="http://www.w3.org/2000/svg" xmlns:xlink="http://www.w3.org/1999/xlink" version="1.1" width="1024" height="1024" viewBox="0 0 1024 1024" xml:space="preserve">
<desc>Created with Fabric.js 2.3.6</desc>
<defs>
</defs>
<rect x="-512" y="-512" rx="0" ry="0" width="1024" height="1024" style="stroke: none; stroke-width: 0; stroke-dasharray: none; stroke-linecap: butt; stroke-linejoin: miter; stroke-miterlimit: 4; fill: rgb(255,150,122); fill-rule: nonzero; opacity: 1;" transform="translate(512 512)"/>
<g id="icon-2" transform="translate(516.437611 693.568826) scale(2.250055 2.250055)" style="">
	<path d="M 205.2 3.7 H 7.2 c -0.2 0 -0.3 -0.1 -0.3 -0.3 c 0 -0.2 0.1 -0.3 0.3 -0.3 h 198.1 c 0.2 0 0.3 0.1 0.3 0.3 c 0 0.2 -0.2 0.3 -0.4 0.3 z M 5.6 1.1 l 0.1 0.1 l 1.8 1.9 H 2 l -2 -2 z" style="stroke: none; stroke-width: 1; stroke-dasharray: none; stroke-linecap: butt; stroke-linejoin: miter; stroke-miterlimit: 4; fill: rgb(24,25,31); fill-rule: nonzero; opacity: 1;" transform="translate(-5.7 -8.1) translate(-102.8, -2.4000000000000004) " stroke-linecap="round" />
	<path d="M 0 5.6 l 2 -1.9 h 5.6 c -0.7 0.5 -1.4 1.2 -2 1.9 H 0 z m 210.7 -2.1 l -0.1 -0.3 V 3 l -0.1 -0.1 l -1.1 -1.1 l -1.1 -1.1 l -0.1 -0.1 h -0.2 l -0.3 -0.1 l -0.2 -0.1 l 0.1 0.2 l 0.1 0.3 v 0.2 l 0.1 0.1 l 1.1 1.1 l 1.1 1.1 l -1.1 1.1 l -1.1 1.1 l -0.1 0.1 v 0.2 l -0.1 0.3 l -0.1 0.2 l 0.2 -0.1 l 0.3 -0.1 h 0.2 l 0.1 -0.1 l 1.1 -1.1 l 1.1 -1.1 l 0.1 -0.1 l 0.1 -0.3 z" style="stroke: none; stroke-width: 1; stroke-dasharray: none; stroke-linecap: butt; stroke-linejoin: miter; stroke-miterlimit: 4; fill: rgb(24,25,31); fill-rule: nonzero; opacity: 1;" transform="translate(-3.15 -7.1) translate(-105.35, -3.4) " stroke-linecap="round" />
	<path d="M 213.2 3.5 l -0.1 -0.3 V 3 h -0.1 l -1.1 -1.1 l -1.1 -1.1 l -0.1 -0.1 h -0.2 l -0.3 -0.1 l -0.2 -0.1 l 0.1 0.2 l 0.1 0.3 v 0.2 l 0.1 0.1 l 1.1 1.1 l 1.1 1.1 l -1.1 1.1 l -1.1 1.1 l -0.1 0.1 V 6 l -0.1 0.3 l -0.1 0.2 l 0.2 -0.1 l 0.3 -0.1 h 0.2 l 0.1 -0.1 l 1.1 -1.1 L 213 4 l 0.1 -0.1 l 0.1 -0.4 z" style="stroke: none; stroke-width: 1; stroke-dasharray: none; stroke-linecap: butt; stroke-linejoin: miter; stroke-miterlimit: 4; fill: rgb(24,25,31); fill-rule: nonzero; opacity: 1;" transform="translate(103.1 -7) translate(-211.60000000000002, -3.5) " stroke-linecap="round" />
</g>
	<g id="text-1" transform="translate(512 608.983379) scale(1.812545 1.812545)">
		<text xml:space="preserve" font-family="Arima Madurai" font-size="67.57479892761394" font-style="normal" font-weight="normal" style="stroke: none; stroke-width: 0; stroke-dasharray: none; stroke-linecap: butt; stroke-linejoin: miter; stroke-miterlimit: 4; fill: rgb(24,25,31); fill-rule: nonzero; opacity: 1; white-space: pre;" ><tspan x="-227.30473" y="21.227947" >REFINAMIENTO</tspan></text>
	</g>
<g id="icon-1" transform="translate(516.437611 411.957622) scale(3.186425 3.186425)" style="">
	<path d="M 54 24 L 54 24 c 0 0 0 0 2.3 -3.3 c 0.6 -0.9 0.4 -2.2 -0.5 -2.9 l -3 -2.2 c -0.9 -0.7 -2.2 -0.4 -2.8 0.5 l -2.1 3 L 47 18.7 l 2.8 -4.1 c 0.2 -0.3 0.2 -0.8 -0.2 -1 c -0.3 -0.2 -0.8 -0.2 -1 0.2 l -9.8 14.1 c -0.2 0.3 -0.2 0.8 0.2 1 c 0.3 0.2 0.8 0.2 1 -0.2 l 3.1 -4.5 l 0.8 0.5 L 26.2 50.2 c -0.1 0.1 -0.1 0.2 -0.1 0.3 l -1.7 8 c -0.1 0.3 0.1 0.6 0.3 0.8 c 0.2 0.2 0.6 0.2 0.8 0 l 6.9 -4.3 c 0.1 -0.1 0.2 -0.1 0.2 -0.2 L 54 24 z M 48.4 20.9 l 1.4 1 L 35.2 42.9 c -0.2 0.3 -0.2 0.8 0.2 1 c 0.3 0.2 0.8 0.2 1 -0.2 L 51 22.8 l 1.3 0.9 L 32 52.9 l -1.1 -2 c -0.1 -0.2 -0.3 -0.3 -0.5 -0.4 l -2.3 -0.4 C 33.3 42.6 43.2 28.4 48.4 20.9 z M 51.1 17 c 0.2 -0.2 0.5 -0.3 0.7 -0.1 l 3 2.2 c 0.3 0.2 0.3 0.5 0.1 0.8 l -1.8 2.6 c -0.2 -0.2 -3.8 -2.7 -4 -2.8 L 51.1 17 z M 44 23 l 2.2 -3.1 l 0.8 0.5 l -2.2 3.1 L 44 23 z M 27.4 51.5 l 2.4 0.4 l 1.2 2.2 l -4.8 3 L 27.4 51.5 z" style="stroke: none; stroke-width: 1; stroke-dasharray: none; stroke-linecap: butt; stroke-linejoin: miter; stroke-miterlimit: 4; fill: rgb(24,25,31); fill-rule: nonzero; opacity: 1;" transform="translate(7.508185 3.459315) translate(-40.508184697825115, -36.45931457505077) " stroke-linecap="round" />
	<path d="M 58.6 0.3 H 24 c -0.2 0 -0.4 0.1 -0.5 0.2 L 7.2 15.2 c -0.3 0.1 -0.6 0.4 -0.6 0.7 V 65 c 0 0.4 0.3 0.8 0.8 0.8 H 42 c 0.2 0 0.4 -0.1 0.5 -0.2 l 16.3 -14.7 c 0.3 -0.1 0.6 -0.4 0.6 -0.7 V 1 C 59.4 0.6 59.1 0.3 58.6 0.3 z M 23.1 2.8 v 8.6 c 0 2.1 -1.9 3.7 -4.2 3.7 H 9.5 L 23.1 2.8 z M 8.1 16.7 h 10.8 c 3.2 0 5.7 -2.3 5.7 -5.2 V 1.8 h 33.3 v 47.6 H 47.1 c -3.2 0 -5.7 2.3 -5.7 5.2 v 9.7 H 8.1 V 16.7 z M 56.5 50.8 L 42.9 63.2 v -8.6 c 0 -2.1 1.9 -3.7 4.2 -3.7 H 56.5 z" style="stroke: none; stroke-width: 1; stroke-dasharray: none; stroke-linecap: butt; stroke-linejoin: miter; stroke-miterlimit: 4; fill: rgb(24,25,31); fill-rule: nonzero; opacity: 1;" transform="translate(0 0.05) translate(-33, -33.05) " stroke-linecap="round" />
	<path d="M 43.2 12.8 l -7.9 -5.3 c -0.3 -0.2 -0.8 -0.1 -1 0.2 L 12.2 40.6 c -0.2 0.3 -0.1 0.8 0.2 1 l 7.9 5.3 c 0.3 0.2 0.8 0.1 1 -0.2 l 22.1 -32.9 C 43.7 13.5 43.6 13 43.2 12.8 z M 39.5 17 l -0.9 -0.6 c -0.3 -0.2 -0.8 -0.1 -1 0.2 c -0.2 0.3 -0.1 0.8 0.2 1 l 0.9 0.6 l -3.1 4.7 L 33 21.2 c -0.3 -0.2 -0.8 -0.1 -1 0.2 c -0.2 0.3 -0.1 0.8 0.2 1 l 2.6 1.7 l -3.1 4.7 l -2 -1.3 c -0.3 -0.2 -0.8 -0.1 -1 0.2 c -0.2 0.3 -0.1 0.8 0.2 1 l 2 1.3 l -3.1 4.7 l -1.7 -1.1 c -0.3 -0.2 -0.8 -0.1 -1 0.2 c -0.2 0.3 -0.1 0.8 0.2 1 l 1.7 1.1 l -3.1 4.7 l -2 -1.3 c -0.3 -0.2 -0.8 -0.1 -1 0.2 c -0.2 0.3 -0.1 0.8 0.2 1 l 2 1.3 l -2.3 3.4 l -6.7 -4.5 L 35.1 9.1 l 6.7 4.5 L 39.5 17 z" style="stroke: none; stroke-width: 1; stroke-dasharray: none; stroke-linecap: butt; stroke-linejoin: miter; stroke-miterlimit: 4; fill: rgb(24,25,31); fill-rule: nonzero; opacity: 1;" transform="translate(-5.164809 -5.8) translate(-27.835190740357973, -27.199999999999992) " stroke-linecap="round" />
</g>
</svg>